# xmcd
#
# Track frame offsets:
# 150
# 15713
# 27804
# 45006
# 59931
#
# Disc length: 1028 seconds
#
#
# Revision: 0
# Processed by: cddbd v1.5PL3 Copyright (c) Steve Scherf et al.
# Submitted via: FreeRIP 2.52 
#
DISCID=36040205
DTITLE=Mamas and the Papas - Mamas and the Papas
DYEAR=1975
DGENRE=Christian Rock
TTITLE0=Monday Monday
TTITLE1=California Dreaming
TTITLE2=Dancing in the street
TTITLE3=Spanish Harlem
TTITLE4=CreeQue alley
EXTD=
EXTT0=
EXTT1=
EXTT2=
EXTT3=
EXTT4=
PLAYORDER=
